<svg id="Layer_1" data-name="Layer 1" xmlns="http://www.w3.org/2000/svg" viewBox="0 0 1500 606"><defs><style>.cls-1{fill:#fff;}</style></defs><path class="cls-1" d="M269.12,187.84a128.48,128.48,0,0,0-101.37,207.6c1.33,1.65,2.64,3.32,4,4.92,2,2.35,4.07,4.69,6.26,6.89l.19.2a208,208,0,0,0,90.9,56.64A208,208,0,0,0,360,407.45l.19-.2c2.19-2.2,4.23-4.54,6.26-6.89,1.38-1.6,2.69-3.27,4-4.92a128.48,128.48,0,0,0-101.36-207.6Zm0,177.79a49.18,49.18,0,1,1,49.17-49.17A49.17,49.17,0,0,1,269.12,365.63Z"/><path class="cls-1" d="M311,185.11a18.9,18.9,0,0,0-4.05-37.37,18.66,18.66,0,0,0-8.13,1.91,30.22,30.22,0,0,0-59.39,0,18.66,18.66,0,0,0-8.13-1.91,18.9,18.9,0,0,0-4,37.37,126.87,126.87,0,0,1,83.75,0Z"/><path class="cls-1" d="M489.55,318.37h78.71c9.77,0,17.49-5.92,17.49-18s-7.72-18-17.49-18H499.84c-3.6,0-5.66-2.06-5.66-5.4V246.1c0-3.35,2.06-5.41,5.66-5.41h68.42c9.77,0,17.49-5.91,17.49-18s-7.72-18-17.49-18H489.55c-26.74,0-39.35,11.83-39.35,34.21v45.27C450.2,306.54,462.81,318.37,489.55,318.37Z"/><path class="cls-1" d="M588.07,332.77H510.64c-35,0-57.87,19.29-57.87,47.33,0,27.52,22.89,46.81,57.87,46.81h77.43c35,0,58.12-19.29,58.12-46.81C646.19,352.06,623,332.77,588.07,332.77Zm0,57.87H510.64c-8.48,0-13.11-4.62-13.11-10.54,0-6.17,4.63-11.06,13.11-11.06h77.43c8.48,0,13.37,4.89,13.37,11.06C601.44,386,596.55,390.64,588.07,390.64Z"/><path class="cls-1" d="M653.65,241.46H641.31V217.8c0-10.29-9-18-21.86-18s-22.12,7.71-22.12,18v91.57c0,10.28,9.25,18,22.12,18s21.86-7.72,21.86-18V284.42h12.34c10,0,18-8.75,18-21.35C671.66,251,663.68,241.46,653.65,241.46Z"/><path class="cls-1" d="M873.45,338.43H693.66c-10.54,0-19-6.94-19-19.54,0-11.84,8.49-19.3,19-19.3H873.45c10.54,0,19,7.46,19,19.3C892.48,331.49,884,338.43,873.45,338.43Zm-37-63.27v-23.4c0-4.12-2.31-6.44-5.91-6.44H705.75c-10.8,0-20.06-6.94-20.06-20.06,0-12.6,9.26-20.58,20.06-20.58H840c26.74,0,40.37,13.89,40.37,38.33v32.15c0,10.29-9,18-21.86,18S836.41,285.45,836.41,275.16ZM731,363.9v15.43c0,3.08,2.31,5.14,5.91,5.14H865.22c10.8,0,20.06,7.21,20.06,20.07,0,12.6-9.26,20.06-20.06,20.06H727.61c-26.49,0-40.64-11.32-40.64-35.24V363.9c0-10.29,9-18,21.87-18S731,353.61,731,363.9Z"/><path class="cls-1" d="M914.93,384V235.55c0-20.32,10.28-30.87,31.38-30.87h57.35c21.09,0,31.38,10.55,31.38,30.87V384c0,20.32-10.29,30.86-31.38,30.86H946.31C925.21,414.82,914.93,404.28,914.93,384Zm78.71-14.15V249.69c0-2.82-1.55-4.62-4.12-4.62H960.71c-2.58,0-4.11,1.8-4.11,4.62V369.81c0,2.83,1.53,4.63,4.11,4.63h28.81C992.09,374.44,993.64,372.64,993.64,369.81Zm68.41,38.07V219.09c0-10.8,9.26-19.29,22.12-19.29s21.86,8.49,21.86,19.29v61.73h12.35c10,0,18,9.51,18,21.6,0,12.86-8,21.87-18,21.87H1106v83.59c0,10.8-9,19.29-21.86,19.29S1062.05,418.68,1062.05,407.88Z"/><path class="cls-1" d="M1249.06,251.24h9v-34c0-9.78,8-16.46,20.06-16.46s19.55,6.68,19.55,16.46v101.6c0,9.77-7.46,16.46-19.55,16.46s-20.06-6.69-20.06-16.46V289.05h-9a14.1,14.1,0,0,1-12.09-6.69c-12.09,26.75-33.43,48.35-63,61.47-9.51,4.12-19.8,1.55-25.2-7.46s-1.8-20.57,6.43-24.17c13.37-5.92,24.43-13.89,32.92-23.92h-21.6c-8.23,0-15.44-4.89-15.44-15.69,0-10,7.21-15.69,15.44-15.69h37.8a86.29,86.29,0,0,0,2.58-12.35c.51-3.34-1.29-5.66-4.38-5.66h-34.72c-9.77,0-16.72-5.66-16.72-17,0-10.8,7-17.24,16.72-17.24H1210c28,0,40.9,13.38,36.78,43.47-.26,1-.26,2.32-.51,3.35A10.45,10.45,0,0,1,1249.06,251.24Zm78.7,171.81c-26.74-5.66-58.64-20.32-79.47-37a144.61,144.61,0,0,1-72,38.32c-9.26,1.8-20.06-2.57-23.4-13.89-3.09-10.8,2.31-20.58,12.08-23.15,29.58-7.72,54.27-24.95,66.62-47.84,3.85-6.94,14.15-11.58,26-8,12.34,3.86,17.23,15.43,13.63,23.66l-.25.52c17.23,14.14,42.69,25.2,67.64,30.6,9.51,2.06,15.17,11.83,12.08,22.89C1347.57,420.48,1337.28,425.11,1327.76,423.05Zm-20.31-97.22V216.26c0-9.77,8.23-16.46,20.57-16.46s20.32,6.69,20.32,16.46V325.83c0,9.77-8,16.46-20.32,16.46S1307.45,335.6,1307.45,325.83Z"/></svg>