<?xml version="1.0" encoding="utf-8"?>
<!-- Generator: Adobe Illustrator 25.0.0, SVG Export Plug-In . SVG Version: 6.00 Build 0)  -->
<svg version="1.1" id="Layer_1" xmlns="http://www.w3.org/2000/svg" xmlns:xlink="http://www.w3.org/1999/xlink" x="0px" y="0px"
	 viewBox="0 0 1500 606" style="enable-background:new 0 0 1500 606;" xml:space="preserve">
<style type="text/css">
	.st0{fill:#FF7E36;}
	.st1{fill:#00B493;}
</style>
<path class="st0" d="M269.1,187.8c-71-0.1-128.5,57.4-128.6,128.3c0,28.7,9.6,56.6,27.3,79.3c1.3,1.6,2.6,3.3,4,4.9
	c2,2.4,4.1,4.7,6.3,6.9l0.2,0.2c24.8,26.5,56.2,46,90.9,56.6c34.7-10.6,66.1-30.1,90.9-56.6l0.2-0.2c2.2-2.2,4.2-4.5,6.3-6.9
	c1.4-1.6,2.7-3.3,4-4.9c43.7-55.9,33.8-136.7-22.1-180.3C325.7,197.4,297.8,187.8,269.1,187.8L269.1,187.8z M269.1,365.6
	c-27.2,0-49.2-22-49.2-49.2c0-27.2,22-49.2,49.2-49.2c27.2,0,49.2,22,49.2,49.2c0,0,0,0,0,0C318.3,343.6,296.3,365.6,269.1,365.6z"
	/>
<path class="st1" d="M311,185.1c10.2-2.2,16.7-12.3,14.5-22.5c-1.9-8.7-9.6-14.9-18.5-14.9c-2.8,0-5.6,0.7-8.1,1.9
	c-3.1-16.4-18.9-27.2-35.3-24.1c-12.2,2.3-21.8,11.9-24.1,24.1c-2.5-1.2-5.3-1.9-8.1-1.9c-10.4,0-18.9,8.5-18.9,18.9
	c0,8.9,6.2,16.6,14.9,18.5C254.4,175.6,283.9,175.6,311,185.1L311,185.1z"/>
<path class="st0" d="M489.5,318.4h78.7c9.8,0,17.5-5.9,17.5-18s-7.7-18-17.5-18h-68.4c-3.6,0-5.7-2.1-5.7-5.4v-30.9
	c0-3.4,2.1-5.4,5.7-5.4h68.4c9.8,0,17.5-5.9,17.5-18s-7.7-18-17.5-18h-78.7c-26.7,0-39.4,11.8-39.4,34.2v45.3
	C450.2,306.5,462.8,318.4,489.5,318.4z"/>
<path class="st0" d="M588.1,332.8h-77.4c-35,0-57.9,19.3-57.9,47.3c0,27.5,22.9,46.8,57.9,46.8h77.4c35,0,58.1-19.3,58.1-46.8
	C646.2,352.1,623,332.8,588.1,332.8z M588.1,390.6h-77.4c-8.5,0-13.1-4.6-13.1-10.5c0-6.2,4.6-11.1,13.1-11.1h77.4
	c8.5,0,13.4,4.9,13.4,11.1C601.4,386,596.5,390.6,588.1,390.6L588.1,390.6z"/>
<path class="st0" d="M653.7,241.5h-12.3v-23.7c0-10.3-9-18-21.9-18s-22.1,7.7-22.1,18v91.6c0,10.3,9.2,18,22.1,18s21.9-7.7,21.9-18
	v-24.9h12.3c10,0,18-8.8,18-21.4C671.7,251,663.7,241.5,653.7,241.5z"/>
<path class="st0" d="M873.5,338.4H693.7c-10.5,0-19-6.9-19-19.5c0-11.8,8.5-19.3,19-19.3h179.8c10.5,0,19,7.5,19,19.3
	C892.5,331.5,884,338.4,873.5,338.4z M836.5,275.2v-23.4c0-4.1-2.3-6.4-5.9-6.4H705.8c-10.8,0-20.1-6.9-20.1-20.1
	c0-12.6,9.3-20.6,20.1-20.6H840c26.7,0,40.4,13.9,40.4,38.3v32.1c0,10.3-9,18-21.9,18S836.4,285.5,836.5,275.2L836.5,275.2z
	 M731,363.9v15.4c0,3.1,2.3,5.1,5.9,5.1h128.3c10.8,0,20.1,7.2,20.1,20.1c0,12.6-9.3,20.1-20.1,20.1H727.6
	c-26.5,0-40.6-11.3-40.6-35.2v-25.5c0-10.3,9-18,21.9-18S731,353.6,731,363.9z"/>
<path class="st0" d="M914.9,384V235.6c0-20.3,10.3-30.9,31.4-30.9h57.3c21.1,0,31.4,10.6,31.4,30.9V384c0,20.3-10.3,30.9-31.4,30.9
	h-57.3C925.2,414.8,914.9,404.3,914.9,384z M993.6,369.9V249.7c0-2.8-1.5-4.6-4.1-4.6h-28.8c-2.6,0-4.1,1.8-4.1,4.6v120.1
	c0,2.8,1.5,4.6,4.1,4.6h28.8C992.1,374.4,993.6,372.6,993.6,369.9L993.6,369.9z M1062.1,407.9V219.1c0-10.8,9.3-19.3,22.1-19.3
	s21.9,8.5,21.9,19.3v61.7h12.3c10,0,18,9.5,18,21.6c0,12.9-8,21.9-18,21.9H1106v83.6c0,10.8-9,19.3-21.9,19.3
	S1062.1,418.7,1062.1,407.9L1062.1,407.9z"/>
<path class="st0" d="M1249.1,251.2h9v-34c0-9.8,8-16.5,20.1-16.5s19.6,6.7,19.6,16.5v101.6c0,9.8-7.5,16.5-19.6,16.5
	s-20.1-6.7-20.1-16.5V289h-9c-4.9,0-9.5-2.5-12.1-6.7c-12.1,26.8-33.4,48.4-63,61.5c-9.5,4.1-19.8,1.5-25.2-7.5s-1.8-20.6,6.4-24.2
	c13.4-5.9,24.4-13.9,32.9-23.9h-21.6c-8.2,0-15.4-4.9-15.4-15.7c0-10,7.2-15.7,15.4-15.7h37.8c1.2-4,2-8.2,2.6-12.4
	c0.5-3.3-1.3-5.7-4.4-5.7h-34.7c-9.8,0-16.7-5.7-16.7-17c0-10.8,7-17.2,16.7-17.2h42.2c28,0,40.9,13.4,36.8,43.5
	c-0.3,1-0.3,2.3-0.5,3.4C1247.2,251.3,1248.1,251.2,1249.1,251.2z M1327.8,423c-26.7-5.7-58.6-20.3-79.5-37
	c-19.8,19.4-44.8,32.7-72,38.3c-9.3,1.8-20.1-2.6-23.4-13.9c-3.1-10.8,2.3-20.6,12.1-23.1c29.6-7.7,54.3-25,66.6-47.8
	c3.8-6.9,14.2-11.6,26-8c12.3,3.9,17.2,15.4,13.6,23.7l-0.2,0.5c17.2,14.1,42.7,25.2,67.6,30.6c9.5,2.1,15.2,11.8,12.1,22.9
	C1347.6,420.5,1337.3,425.1,1327.8,423z M1307.4,325.8V216.3c0-9.8,8.2-16.5,20.6-16.5s20.3,6.7,20.3,16.5v109.6
	c0,9.8-8,16.5-20.3,16.5S1307.4,335.6,1307.4,325.8z"/>
</svg>
