<?xml version="1.0" encoding="UTF-8"?><svg id="_레이어_2" xmlns="http://www.w3.org/2000/svg" viewBox="0 0 1122.13 224.88"><defs><style>.cls-1{fill:#fff;}</style></defs><g id="_레이어_1-2"><path class="cls-1" d="M447.88,144.95c-7.65-.32-15.58-1.06-23.79-2.2-8.22-1.14-16.23-2.97-24.04-5.49-7.81-2.52-15.13-5.86-21.96-10.01-6.83-4.15-12.53-9.4-17.08-15.74-4.72,6.34-10.46,11.59-17.2,15.74-6.75,4.15-14.03,7.48-21.84,10.01-7.81,2.52-15.82,4.35-24.04,5.49-8.22,1.14-16.15,1.87-23.79,2.2-4.72.16-8.46-1.3-11.23-4.39-2.77-3.09-4.15-7.24-4.15-12.45v-26.11c0-4.88,1.34-8.95,4.03-12.2,2.68-3.25,6.38-5.21,11.1-5.86,16.27-2.28,28.22-8.17,35.87-17.69,7.65-9.52,11.47-22.57,11.47-39.17v-4.88c0-5.2,1.38-9.35,4.15-12.45,2.76-3.09,6.5-4.64,11.23-4.64h48.81c4.72,0,8.46,1.55,11.23,4.64,2.76,3.09,4.15,7.24,4.15,12.45v4.88c0,16.59,3.82,29.65,11.47,39.17,7.65,9.52,19.6,15.42,35.87,17.69,4.72.65,8.42,2.6,11.1,5.86,2.68,3.26,4.03,7.32,4.03,12.2v26.11c0,5.21-1.38,9.36-4.15,12.45-2.77,3.09-6.51,4.56-11.23,4.39ZM386.38,137.39c4.72,0,8.46,1.55,11.23,4.64,2.76,3.09,4.15,7.24,4.15,12.45v8.3h46.12c4.72,0,8.46,1.55,11.23,4.64,2.76,3.09,4.15,7.24,4.15,12.45v24.89c0,5.2-1.38,9.35-4.15,12.45-2.77,3.09-6.51,4.64-11.23,4.64h-173.75c-4.72,0-8.46-1.55-11.23-4.64-2.77-3.09-4.15-7.24-4.15-12.45v-24.89c0-5.2,1.38-9.35,4.15-12.45,2.76-3.09,6.5-4.64,11.23-4.64h46.12v-8.3c0-5.2,1.38-9.35,4.15-12.45,2.76-3.09,6.5-4.64,11.23-4.64h50.76Z"/><path class="cls-1" d="M667.5,144.95c-7.65-.32-15.58-1.06-23.79-2.2-8.22-1.14-16.23-2.97-24.04-5.49-7.81-2.52-15.13-5.86-21.96-10.01-6.83-4.15-12.53-9.4-17.08-15.74-4.72,6.34-10.46,11.59-17.2,15.74-6.75,4.15-14.03,7.48-21.84,10.01-7.81,2.52-15.82,4.35-24.04,5.49-8.22,1.14-16.15,1.87-23.79,2.2-4.72.16-8.46-1.3-11.23-4.39-2.77-3.09-4.15-7.24-4.15-12.45v-26.11c0-4.88,1.34-8.95,4.03-12.2,2.68-3.25,6.38-5.21,11.1-5.86,16.27-2.28,28.22-8.17,35.87-17.69,7.65-9.52,11.47-22.57,11.47-39.17v-4.88c0-5.2,1.38-9.35,4.15-12.45,2.76-3.09,6.5-4.64,11.23-4.64h48.81c4.72,0,8.46,1.55,11.23,4.64,2.76,3.09,4.15,7.24,4.15,12.45v4.88c0,16.59,3.82,29.65,11.47,39.17,7.65,9.52,19.6,15.42,35.87,17.69,4.72.65,8.42,2.6,11.1,5.86,2.68,3.26,4.03,7.32,4.03,12.2v26.11c0,5.21-1.38,9.36-4.15,12.45-2.77,3.09-6.51,4.56-11.23,4.39ZM606.01,137.39c4.72,0,8.46,1.55,11.23,4.64,2.76,3.09,4.15,7.24,4.15,12.45v8.3h46.12c4.72,0,8.46,1.55,11.23,4.64,2.76,3.09,4.15,7.24,4.15,12.45v24.89c0,5.2-1.38,9.35-4.15,12.45-2.77,3.09-6.51,4.64-11.23,4.64h-173.75c-4.72,0-8.46-1.55-11.23-4.64-2.77-3.09-4.15-7.24-4.15-12.45v-24.89c0-5.2,1.38-9.35,4.15-12.45,2.76-3.09,6.5-4.64,11.23-4.64h46.12v-8.3c0-5.2,1.38-9.35,4.15-12.45,2.76-3.09,6.5-4.64,11.23-4.64h50.76Z"/><path class="cls-1" d="M734.85,223.29c-5.7-.49-10.74-1.83-15.13-4.03-4.39-2.2-8.14-4.88-11.23-8.05-3.09-3.17-5.49-6.75-7.2-10.74-1.71-3.99-2.81-8.1-3.29-12.32-.49-4.88-.85-10.94-1.1-18.18-.24-7.24-.37-14.72-.37-22.45s.12-15.21.37-22.45c.24-7.24.61-13.3,1.1-18.18.49-4.39,1.59-8.62,3.29-12.69,1.71-4.06,4.11-7.69,7.2-10.86,3.09-3.17,6.83-5.81,11.23-7.93,4.39-2.11,9.43-3.42,15.13-3.9,9.76-.81,19.11-1.26,28.06-1.34,8.95-.08,18.3.37,28.06,1.34,5.69.49,10.86,1.79,15.5,3.9,4.64,2.12,8.66,4.76,12.08,7.93s6.1,6.79,8.05,10.86c1.95,4.07,3.17,8.3,3.66,12.69.49,4.88.85,10.94,1.1,18.18.24,7.24.37,14.73.37,22.45s-.12,15.21-.37,22.45c-.24,7.24-.61,13.3-1.1,18.18-.49,4.23-1.71,8.34-3.66,12.32-1.95,3.98-4.64,7.56-8.05,10.74s-7.44,5.81-12.08,7.93c-4.64,2.11-9.8,3.5-15.5,4.15-9.76,1.14-19.12,1.67-28.06,1.59-8.95-.08-18.3-.61-28.06-1.59ZM815.14,13.67c4.72,0,8.46,1.55,11.23,4.64,2.76,3.09,4.15,7.24,4.15,12.45v19.03c0,5.21-1.38,9.36-4.15,12.45-2.77,3.09-6.51,4.64-11.23,4.64h-101.76c-4.56,0-8.26-1.54-11.1-4.64-2.85-3.09-4.27-7.24-4.27-12.45v-19.03c0-5.2,1.42-9.35,4.27-12.45,2.84-3.09,6.63-4.64,11.35-4.64h17.08c1.95,0,3.62-.69,5-2.07,1.38-1.38,2.68-2.93,3.9-4.64,1.22-1.71,2.52-3.29,3.9-4.76,1.38-1.46,3.05-2.2,5-2.2h31.72c1.95,0,3.62.73,5,2.2,1.38,1.46,2.68,3.05,3.9,4.76,1.22,1.71,2.52,3.26,3.9,4.64,1.38,1.38,3.05,2.07,5,2.07h17.08ZM767.55,184c2.28-11.55,3.42-23.75,3.42-36.6s-1.14-25.05-3.42-36.6h-6.34c2.11,11.55,3.17,23.75,3.17,36.6s-1.06,25.05-3.17,36.6h6.34ZM897.13,204.74c0,5.2-1.38,9.35-4.15,12.45-2.77,3.09-6.51,4.64-11.23,4.64h-30.02c-4.72,0-8.46-1.55-11.23-4.64-2.77-3.09-4.15-7.24-4.15-12.45V22.21c0-5.2,1.38-9.35,4.15-12.45,2.76-3.09,6.5-4.64,11.23-4.64h30.02c4.72,0,8.46,1.55,11.23,4.64,2.76,3.09,4.15,7.24,4.15,12.45v49.05c0,2.6.77,4.64,2.32,6.1,1.54,1.46,3.29,2.81,5.25,4.03,1.95,1.22,3.7,2.52,5.25,3.9,1.54,1.38,2.32,3.38,2.32,5.98v37.09c0,2.6-.77,4.64-2.32,6.1-1.55,1.46-3.29,2.81-5.25,4.03s-3.7,2.52-5.25,3.9c-1.55,1.38-2.32,3.38-2.32,5.98v56.37Z"/><path class="cls-1" d="M1061.85,204.74c0,5.2-1.38,9.35-4.15,12.45-2.77,3.09-6.51,4.64-11.23,4.64h-24.16c-4.72,0-8.46-1.55-11.23-4.64-2.77-3.09-4.15-7.24-4.15-12.45v-59.3h-10.01c-2.12,12.2-5.04,22.82-8.78,31.85-3.74,9.03-8.38,16.59-13.91,22.69-5.53,6.1-11.92,10.82-19.16,14.15-7.24,3.33-15.34,5.57-24.28,6.71-4.56.65-8.26-.57-11.1-3.66-2.85-3.09-4.27-7.24-4.27-12.45v-41.48c0-5.04,2.68-9.43,8.05-13.18,4.55-3.09,8.21-8.33,10.98-15.74,2.76-7.4,4.15-18.02,4.15-31.85v-33.43h-7.81c-4.72,0-8.46-1.54-11.23-4.64-2.77-3.09-4.15-7.24-4.15-12.45v-29.77c0-5.2,1.38-9.35,4.15-12.45,2.76-3.09,6.5-4.64,11.23-4.64h54.91c4.55,0,8.25,1.55,11.1,4.64,2.84,3.09,4.27,7.24,4.27,12.45v51.98h5.86V22.21c0-5.2,1.38-9.35,4.15-12.45,2.76-3.09,6.5-4.64,11.23-4.64h24.16c4.72,0,8.46,1.55,11.23,4.64,2.76,3.09,4.15,7.24,4.15,12.45v182.53ZM1122.13,204.74c0,5.2-1.38,9.35-4.15,12.45-2.77,3.09-6.51,4.64-11.23,4.64h-24.16c-4.56,0-8.26-1.55-11.1-4.64-2.85-3.09-4.27-7.24-4.27-12.45V22.21c0-5.2,1.42-9.35,4.27-12.45,2.84-3.09,6.55-4.64,11.1-4.64h24.16c4.72,0,8.46,1.55,11.23,4.64,2.76,3.09,4.15,7.24,4.15,12.45v182.53Z"/><path class="cls-1" d="M99.84,189.51c23.26-57.57,56.44-84.31,97.3-79.41,8.02,29.24-7.37,66.48-36.72,88.86-31.4,23.95-78.75,26.22-113.38,5.43C14.23,184.7-4.11,147.23,1.35,111.02c37.07-8.92,73.94,20.11,98.49,78.49Z"/><path class="cls-1" d="M2.82,7.52c51.78,3.33,82.46,31.51,96.84,83.62,2.45-7.54,3.82-11.73,5.17-15.93,11.81-36.67,45.7-64.25,81.79-67.02,8.34-.64,12.99.56,13.07,10.66.43,49.81-39.07,101.85-106.79,98.36C38.1,114.37-5.43,65.91.55,12.29c.09-.85.75-1.64,2.27-4.77Z"/></g></svg>